<svg width="1415" height="3265" viewBox="0 0 1415 3265" fill="none" xmlns="http://www.w3.org/2000/svg">
<g clip-path="url(#clip0_209_776)">
<mask id="mask0_209_776" style="mask-type:luminance" maskUnits="userSpaceOnUse" x="-693" y="0" width="2782" height="3887">
<path d="M2089 0H-693V3887H2089V0Z" fill="white"/>
</mask>
<g mask="url(#mask0_209_776)">
<path d="M2089 0H-693V3887H2089V0Z" fill="black"/>
<path d="M-693 -1202.17C-668.713 -1176.04 -572.667 -1040.04 -547.277 -1045.36C-521.885 -1050.67 -573.771 -1247.93 -540.652 -1234.05C-507.533 -1220.17 -381.681 -975.945 -348.562 -962.063C-315.443 -948.181 -359.602 -1126.25 -341.938 -1150.76C-324.275 -1175.26 -291.156 -1122.99 -242.581 -1109.11C-194.006 -1095.23 -99.0648 -1119.74 -50.4899 -1067.46C-1.9165 -1015.19 31.2039 -809.36 48.8666 -795.478C66.5294 -781.594 37.827 -998.053 55.4898 -984.171C73.1541 -970.289 121.729 -726.067 154.848 -712.185C187.967 -698.303 205.629 -876.371 254.204 -900.878C302.779 -925.387 413.177 -911.505 446.296 -859.232C479.414 -806.96 419.8 -601.128 452.919 -587.245C486.038 -573.363 611.89 -789.821 645.01 -775.939C678.129 -762.057 618.514 -556.224 651.633 -503.953C684.752 -451.68 795.152 -476.188 843.722 -462.306C892.305 -448.424 925.414 -396.151 943.077 -420.66C960.74 -445.167 932.036 -584.846 949.698 -609.353C967.361 -633.862 1015.94 -619.98 1049.07 -567.707C1082.18 -515.435 1115.3 -347.992 1148.42 -295.719C1181.53 -243.448 1214.66 -267.956 1247.78 -254.074C1280.9 -240.192 1298.56 -187.919 1347.13 -212.428C1395.7 -236.935 1506.1 -376.614 1539.22 -401.121C1572.34 -425.63 1512.73 -411.748 1545.84 -359.475C1578.97 -307.203 1704.82 -101.37 1737.93 -87.488C1771.05 -73.6058 1711.44 -290.064 1744.57 -276.182C1777.68 -262.301 1903.53 -18.0774 1936.66 -4.19519C1969.77 9.68689 1917.88 -187.576 1943.28 -192.889C1968.66 -198.203 2064.72 -62.2087 2089 -36.0726V3670.97H-693V-1202.17Z" fill="url(#paint0_linear_209_776)"/>
<path d="M-704.592 -600.58C-680.304 -574.444 -584.259 -438.451 -558.868 -443.763C-533.477 -449.076 -585.363 -646.34 -552.244 -632.458C-519.125 -618.576 -393.273 -374.353 -360.154 -360.471C-327.035 -346.588 -371.194 -524.657 -353.529 -549.165C-335.867 -573.673 -302.748 -521.401 -254.173 -507.519C-205.598 -493.637 -110.656 -518.144 -62.0816 -465.872C-13.5082 -413.599 19.6122 -207.767 37.275 -193.885C54.9377 -180.003 26.2354 -396.462 43.8982 -382.578C61.5624 -368.697 110.137 -124.474 143.256 -110.592C176.375 -96.7098 194.038 -274.778 242.613 -299.287C291.188 -323.794 401.585 -309.912 434.704 -257.64C467.823 -205.367 408.208 0.46521 441.327 14.3474C474.446 28.2295 600.298 -188.229 633.418 -174.347C666.537 -160.465 606.923 45.3679 640.042 97.6401C673.16 149.912 783.561 125.404 832.13 139.287C880.714 153.169 913.822 205.442 931.485 180.933C949.148 156.426 920.444 16.7468 938.107 -7.76123C955.77 -32.2692 1004.35 -18.3871 1037.48 33.8852C1070.59 86.1575 1103.71 253.601 1136.83 305.872C1169.94 358.144 1203.06 333.637 1236.19 347.519C1269.31 361.401 1286.97 413.673 1335.54 389.165C1384.11 364.658 1494.51 224.979 1527.63 200.471C1560.75 175.963 1501.14 189.845 1534.25 242.117C1567.37 294.39 1693.23 500.222 1726.34 514.105C1759.46 527.987 1699.85 311.528 1732.98 325.41C1766.09 339.292 1891.94 583.515 1925.06 597.397C1958.17 611.279 1906.29 414.015 1931.69 408.703C1957.07 403.39 2053.12 539.383 2077.41 565.52V4272.56H-704.592V-600.58Z" fill="url(#paint1_linear_209_776)"/>
<path d="M-703.948 45.229C-703.089 68.323 -708.241 156.8 -698.796 183.793C-689.351 210.786 -679.906 237.779 -647.277 207.187C-614.649 176.596 -535.653 -7.55743 -503.026 0.240573C-470.397 8.03857 -453.225 207.787 -451.506 253.975C-449.789 300.163 -494.439 269.572 -492.722 277.369C-491.005 285.167 -458.376 292.965 -441.203 300.764C-424.03 308.561 -422.313 316.359 -389.685 324.157C-357.056 331.954 -278.062 378.143 -245.433 347.551C-212.805 316.958 -195.632 171.197 -193.915 140.604C-192.197 110.012 -236.846 117.81 -235.129 163.998C-233.412 210.186 -200.783 371.545 -183.61 417.733C-166.438 463.922 -149.265 433.329 -132.092 441.126C-114.919 448.925 -97.7463 495.114 -80.5732 464.521C-63.4001 433.929 -46.2286 249.776 -29.0555 257.575C-11.8824 265.372 5.29065 465.122 22.4637 511.308C39.6367 557.497 41.3538 565.296 73.9814 534.703C106.61 504.111 201.061 319.958 218.234 327.757C235.407 335.554 159.847 573.693 177.018 581.49C194.191 589.289 304.098 366.747 321.271 374.544C338.444 382.342 262.884 582.091 280.057 628.279C297.228 674.468 391.68 643.875 424.308 651.672C456.937 659.472 474.11 667.269 475.827 675.067C477.544 682.865 432.894 729.053 434.611 698.461C436.328 667.868 468.957 483.716 486.13 491.514C503.303 499.311 505.02 699.061 537.648 745.249C570.277 791.437 649.271 760.844 681.9 768.643C714.528 776.441 731.701 784.239 733.418 792.036C735.137 799.834 690.487 846.022 692.204 815.431C693.921 784.838 726.55 639.076 743.723 608.483C760.899 577.892 778.069 585.69 795.239 631.878C812.41 678.066 829.58 877.815 846.764 885.613C863.935 893.411 865.644 709.258 898.275 678.665C930.905 648.074 1025.36 655.872 1042.53 702.06C1059.7 748.248 999.6 947.997 1001.31 955.795C1003.03 963.593 1020.2 741.05 1052.84 748.847C1085.47 756.646 1179.91 956.394 1197.08 1002.58C1214.26 1048.77 1154.15 1018.18 1155.87 1025.98C1157.59 1033.77 1174.77 1079.96 1207.4 1049.37C1240.01 1018.78 1334.47 873.015 1351.64 842.424C1368.81 811.831 1308.71 858.019 1310.43 865.818C1312.14 873.616 1344.77 843.023 1361.94 889.211C1379.11 935.4 1380.84 1135.15 1413.47 1142.95C1446.1 1150.74 1540.54 966.592 1557.71 935.999C1574.89 905.407 1514.78 913.205 1516.5 959.393C1518.21 1005.58 1535.4 1205.33 1568.01 1213.13C1600.64 1220.93 1695.1 1036.77 1712.27 1006.18C1729.44 975.589 1653.88 983.387 1671.06 1029.58C1688.23 1075.76 1798.14 1237.12 1815.31 1283.31C1832.48 1329.5 1756.91 1337.3 1774.1 1306.7C1791.27 1276.11 1901.17 1130.35 1918.34 1099.76C1935.51 1069.17 1875.41 1076.96 1877.13 1123.15C1878.84 1169.34 1911.47 1369.09 1928.64 1376.89C1945.83 1384.68 1955.26 1181.34 1980.17 1169.94C2005.06 1158.54 2061.74 1285.41 2078.05 1308.5V4043.8H-703.948V45.229Z" fill="url(#paint2_linear_209_776)"/>
<path d="M-693 763.003C-652.153 760.004 -506.429 731.813 -447.919 745.008C-389.408 758.205 -392.721 771.402 -341.938 842.183C-291.156 912.966 -224.917 1098.92 -143.223 1169.7C-61.5295 1240.48 66.5294 1272.87 148.223 1266.87C229.917 1260.88 296.156 1101.32 346.938 1133.71C397.721 1166.1 402.136 1428.83 452.919 1461.22C503.702 1493.62 569.94 1295.67 651.633 1328.06C733.327 1360.45 861.385 1623.19 943.077 1655.58C1024.77 1687.97 1091.02 1490.02 1141.8 1522.41C1192.57 1554.8 1181.53 1817.54 1247.78 1849.93C1314.01 1882.32 1472.99 1722.75 1539.22 1716.76C1605.47 1710.75 1578.97 1781.54 1645.2 1813.93C1711.44 1846.33 1862.69 1859.52 1936.66 1911.11C2010.61 1962.69 2063.61 2088.06 2089 2123.45V3887H-693V763.003Z" fill="url(#paint3_linear_209_776)"/>
<path d="M-693 1730.39C-682.894 1721.66 -660.306 1678.44 -632.367 1677.99C-604.428 1677.54 -576.489 1677.09 -525.367 1727.7C-474.245 1778.3 -376.756 1931.01 -325.634 1981.62C-274.51 2032.23 -238.844 2048.79 -218.633 2031.33C-198.423 2013.86 -224.578 1894.27 -204.366 1876.81C-184.156 1859.34 -148.489 1875.91 -97.3666 1926.51C-46.2444 1977.12 66.7004 2163.88 102.367 2180.45C138.033 2197.01 96.4229 2043.39 116.633 2025.93C136.844 2008.46 187.967 2025.03 223.633 2075.63C259.3 2126.23 279.51 2278.95 330.634 2329.57C381.756 2380.17 479.245 2396.73 530.367 2379.27C581.489 2361.79 617.155 2208.18 637.367 2224.75C657.578 2241.32 631.422 2462.11 651.633 2478.67C671.845 2495.24 707.511 2341.63 758.639 2324.17C809.758 2306.69 907.244 2357.29 958.363 2373.87C1009.48 2390.44 1045.16 2372.96 1065.37 2423.57C1085.58 2474.17 1043.97 2660.93 1079.63 2677.5C1115.3 2694.06 1228.25 2506.41 1279.37 2522.98C1330.48 2539.56 1350.7 2760.33 1386.37 2776.9C1422.03 2793.48 1457.7 2605.83 1493.36 2622.39C1529.04 2638.96 1580.15 2859.75 1600.37 2876.32C1620.58 2892.89 1594.43 2705.23 1614.64 2721.8C1634.84 2738.37 1670.51 2959.17 1721.63 2975.72C1772.75 2992.29 1870.25 2838.68 1921.37 2821.22C1972.49 2803.74 2000.43 2837.33 2028.36 2870.92C2056.31 2904.51 2078.9 2997.43 2089 3022.73V4043.84H-693V1730.39Z" fill="url(#paint4_linear_209_776)"/>
</g>
</g>
<defs>
<linearGradient id="paint0_linear_209_776" x1="698" y1="-1234.75" x2="698" y2="3670.97" gradientUnits="userSpaceOnUse">
<stop stop-color="#1F1F1F"/>
<stop offset="1"/>
</linearGradient>
<linearGradient id="paint1_linear_209_776" x1="686.408" y1="-633.158" x2="686.408" y2="4272.56" gradientUnits="userSpaceOnUse">
<stop stop-color="#1F1F1F"/>
<stop offset="1"/>
</linearGradient>
<linearGradient id="paint2_linear_209_776" x1="686.73" y1="-1.0145e-06" x2="686.73" y2="4043.8" gradientUnits="userSpaceOnUse">
<stop stop-color="#1F1F1F"/>
<stop offset="1"/>
</linearGradient>
<linearGradient id="paint3_linear_209_776" x1="698" y1="741.512" x2="698" y2="3887" gradientUnits="userSpaceOnUse">
<stop stop-color="#1F1F1F"/>
<stop offset="1"/>
</linearGradient>
<linearGradient id="paint4_linear_209_776" x1="698" y1="1677.91" x2="698" y2="4043.84" gradientUnits="userSpaceOnUse">
<stop stop-color="#A23F3F"/>
<stop offset="1" stop-color="#75752E"/>
</linearGradient>
<clipPath id="clip0_209_776">
<rect width="2782" height="3887" fill="white" transform="translate(-693)"/>
</clipPath>
</defs>
</svg>
